<?xml version="1.0" standalone="no"?><!DOCTYPE svg PUBLIC "-//W3C//DTD SVG 1.1//EN" "http://www.w3.org/Graphics/SVG/1.1/DTD/svg11.dtd"><svg t="1736454791933" class="icon" viewBox="0 0 1024 1024" version="1.1" xmlns="http://www.w3.org/2000/svg" p-id="1463" xmlns:xlink="http://www.w3.org/1999/xlink" width="200" height="200"><path d="M653.57 234.05c0-8.69 7.04-15.73 15.73-15.73h96.03c9.6 0 17.39-7.78 17.39-17.39 0-9.6-7.78-17.39-17.39-17.39H279.38c-9.6 0-17.39 7.78-17.39 17.39 0 9.6 7.78 17.39 17.39 17.39h53.81c8.69 0 15.73 7.04 15.73 15.73 0 8.69-7.04 15.73-15.73 15.73H193.28c-9.6 0-17.39 7.78-17.39 17.39 0 9.6 7.78 17.39 17.39 17.39h500.03c9.6 0 17.39-7.78 17.39-17.39 0-9.6-7.78-17.39-17.39-17.39H669.3c-8.68 0-15.73-7.04-15.73-15.73zM817.35 479.13c0-8.69 7.04-15.73 15.73-15.73h96.03c9.6 0 17.39-7.78 17.39-17.39 0-9.6-7.78-17.39-17.39-17.39H443.16c-9.6 0-17.39 7.78-17.39 17.39 0 9.6 7.78 17.39 17.39 17.39h53.81c8.69 0 15.73 7.04 15.73 15.73 0 8.69-7.04 15.73-15.73 15.73H357.06c-9.6 0-17.39 7.78-17.39 17.39 0 9.6 7.78 17.39 17.39 17.39h500.03c9.6 0 17.39-7.78 17.39-17.39 0-9.6-7.78-17.39-17.39-17.39h-24.01c-8.68 0-15.73-7.04-15.73-15.73zM697.28 757.63c0-8.69 7.04-15.73 15.73-15.73h96.03c9.6 0 17.39-7.78 17.39-17.39 0-9.6-7.78-17.39-17.39-17.39H323.08c-9.6 0-17.39 7.78-17.39 17.39 0 9.6 7.78 17.39 17.39 17.39h53.81c8.69 0 15.73 7.04 15.73 15.73 0 8.69-7.04 15.73-15.73 15.73H236.98c-9.6 0-17.39 7.78-17.39 17.39 0 9.6 7.78 17.39 17.39 17.39h500.03c9.6 0 17.39-7.78 17.39-17.39 0-9.6-7.78-17.39-17.39-17.39H713c-8.68 0-15.72-7.04-15.72-15.73z" fill="#fad0a7" p-id="1464"></path><path d="M830.02 504.43m-17.81 0a17.81 17.81 0 1 0 35.62 0 17.81 17.81 0 1 0-35.62 0Z" fill="#f4ea2a" p-id="1465"></path><path d="M826.42 534.33c-7.02 0-13.63-2.74-18.59-7.7-10.25-10.25-10.25-26.93 0-37.19 4.97-4.97 11.57-7.7 18.59-7.7s13.63 2.73 18.59 7.7c4.97 4.97 7.7 11.57 7.7 18.59s-2.74 13.63-7.7 18.59c-4.96 4.97-11.56 7.71-18.59 7.71z m0-47.51c-5.66 0-10.99 2.21-14.99 6.21-8.27 8.27-8.27 21.72 0 29.99 4 4 9.33 6.21 14.99 6.21 5.67 0 10.99-2.21 14.99-6.21 4.01-4.01 6.21-9.33 6.21-15s-2.21-10.99-6.21-14.99-9.32-6.21-14.99-6.21z" fill="#F76319" p-id="1466"></path><path d="M463.28 692.85m-17.81 0a17.81 17.81 0 1 0 35.62 0 17.81 17.81 0 1 0-35.62 0Z" fill="#FFDB56" p-id="1467"></path><path d="M459.68 722.73c-6.73 0-13.47-2.56-18.59-7.69-10.25-10.25-10.25-26.93 0-37.19s26.93-10.25 37.19 0c10.25 10.25 10.25 26.93 0 37.19a26.285 26.285 0 0 1-18.6 7.69z m0-47.48c-5.43 0-10.86 2.07-14.99 6.2-8.27 8.27-8.27 21.72 0 29.99s21.72 8.27 29.99 0 8.27-21.72 0-29.99c-4.14-4.13-9.57-6.2-15-6.2z" fill="#F76319" p-id="1468"></path><path d="M367.1 807.6m-17.81 0a17.81 17.81 0 1 0 35.62 0 17.81 17.81 0 1 0-35.62 0Z" fill="#FFDB56" p-id="1469"></path><path d="M363.5 837.48c-6.73 0-13.47-2.56-18.59-7.69-10.25-10.25-10.25-26.93 0-37.19 4.97-4.97 11.57-7.7 18.59-7.7s13.63 2.74 18.59 7.7c10.25 10.25 10.25 26.93 0 37.19-5.12 5.13-11.86 7.69-18.59 7.69z m0-47.49c-5.66 0-10.99 2.21-14.99 6.21-8.27 8.27-8.27 21.72 0 29.99s21.72 8.27 29.99 0 8.27-21.72 0-29.99c-4.01-4-9.34-6.21-15-6.21zM577.25 890.88h-17.5v-17.5c0-2.35-1.9-4.25-4.25-4.25s-4.25 1.9-4.25 4.25v17.5h-17.5c-2.35 0-4.25 1.9-4.25 4.25s1.9 4.25 4.25 4.25h17.5v17.5c0 2.35 1.9 4.25 4.25 4.25s4.25-1.9 4.25-4.25v-17.5h17.5c2.35 0 4.25-1.9 4.25-4.25s-1.9-4.25-4.25-4.25zM417.25 154.88h-17.5v-17.5c0-2.35-1.9-4.25-4.25-4.25s-4.25 1.9-4.25 4.25v17.5h-17.5c-2.35 0-4.25 1.9-4.25 4.25s1.9 4.25 4.25 4.25h17.5v17.5c0 2.35 1.9 4.25 4.25 4.25s4.25-1.9 4.25-4.25v-17.5h17.5c2.35 0 4.25-1.9 4.25-4.25s-1.9-4.25-4.25-4.25zM199.97 524.75l-12.37 12.37-12.37-12.37a4.249 4.249 0 1 0-6.01 6.01l12.37 12.37-12.37 12.37a4.249 4.249 0 1 0 6.01 6.01l12.37-12.37 12.37 12.37a4.249 4.249 0 1 0 6.01-6.01l-12.37-12.37 12.37-12.37a4.249 4.249 0 1 0-6.01-6.01zM491.68 300.75l-12.37 12.37-12.37-12.37a4.249 4.249 0 1 0-6.01 6.01l12.37 12.37-12.37 12.37a4.249 4.249 0 1 0 6.01 6.01l12.37-12.37 12.37 12.37a4.249 4.249 0 1 0 6.01-6.01l-12.37-12.37 12.37-12.37a4.249 4.249 0 1 0-6.01-6.01z" fill="#d81e06" p-id="1470"></path><path d="M714.86 191.13m-32 0a32 32 0 1 0 64 0 32 32 0 1 0-64 0Z" fill="#66FF33" p-id="1471"></path><path d="M762.57 787.45m-32 0a32 32 0 1 0 64 0 32 32 0 1 0-64 0Z" fill="#6666FF" p-id="1472"></path><path d="M331.5 325.31m-32 0a32 32 0 1 0 64 0 32 32 0 1 0-64 0Z" fill="#6666FF" p-id="1473"></path><path d="M219.6 799.13m-32 0a32 32 0 1 0 64 0 32 32 0 1 0-64 0Z" fill="#6666FF" p-id="1474"></path><path d="M752.81 467.42v-122.7c0-7.49-6.1-13.59-13.59-13.59H541.24c-7.49 0-13.59 6.1-13.59 13.59v122.7c0 28.15 10.44 55.09 29.4 75.86 15.93 17.46 36.72 29.34 59.51 34.22v170.06h-4.49c-33.46 0-60.68 27.22-60.68 60.68v9.3c0 7.49 6.1 13.59 13.59 13.59h150.49c7.49 0 13.59-6.1 13.59-13.59v-9.3c0-33.46-27.22-60.68-60.68-60.68h-1.1V576.72c49.63-12.2 85.53-56.95 85.53-109.3zM668.39 767.5c22.5 0 40.74 18.24 40.74 40.74v2.96H571.32v-2.96c0-22.5 18.24-40.74 40.74-40.74h20.81c2 0 3.62-1.62 3.62-3.62V562.57c0-1.63-1.32-2.95-2.95-2.95h-2.45c-47.61-4.65-83.51-44.28-83.51-92.2V351.06h185.29v116.35c0 46.96-35.08 86.48-81.62 92h-0.97c-1.63 0-2.95 1.32-2.95 2.95v9.72h0.02v191.79c0 2 1.62 3.62 3.62 3.62h17.42z" fill="#d81e06" p-id="1475"></path><path d="M640.81 553.15c-40.9 0-74.05-33.15-74.05-74.05v-57.87h148.1v57.87c0 40.9-33.16 74.05-74.05 74.05z" fill="#f4ea2a" p-id="1476"></path><path d="M586.41 479.23h-1.04a6.4 6.4 0 0 1-6.4-6.4v-37.08a6.4 6.4 0 0 1 6.4-6.4h1.04a6.4 6.4 0 0 1 6.4 6.4v37.08a6.4 6.4 0 0 1-6.4 6.4zM585.89 508.03c-3.82 0-6.92-3.1-6.92-6.92v-8.24c0-3.82 3.1-6.92 6.92-6.92s6.92 3.1 6.92 6.92v8.24c0 3.82-3.1 6.92-6.92 6.92z" fill="#FFFFFF" p-id="1477"></path><path d="M524.85 797.29c0-3.73-1.51-7.3-4.19-9.89L262.61 537.77c-81.91-74.85-71.16-187.58-1.03-252.59 83.83-77.7 181.2-45.61 249.93 20.88 7.63 7.38 19.73 7.38 27.36 0 68.73-66.49 168.38-103.07 258.06-15.63 41.75 40.7 57.25 102.42 42.08 159.45-2.31 8.7 4.31 17.21 13.31 17.21 6.08 0 11.48-3.97 13.18-9.8 18.64-63.94 3.91-135.55-44.2-187.37-75.77-81.62-203.59-82.67-282.34-3.92-7.6 7.6-19.93 7.6-27.54 0l-0.04-0.04c-80.22-80.22-209.11-77.91-284.75 6.64-68.51 76.58-71.21 200.75 0.83 274.31s273.9 260.69 273.9 260.69c8.67 8.67 23.49 2.53 23.49-9.73v-0.58z" fill="#d81e06" p-id="1478"></path></svg>