<?xml version="1.0" standalone="no"?><!DOCTYPE svg PUBLIC "-//W3C//DTD SVG 1.1//EN" "http://www.w3.org/Graphics/SVG/1.1/DTD/svg11.dtd"><svg t="1736470192225" class="icon" viewBox="0 0 1105 1024" version="1.1" xmlns="http://www.w3.org/2000/svg" p-id="15001" id="mx_n_1736470192227" xmlns:xlink="http://www.w3.org/1999/xlink" width="215.8203125" height="200"><path d="M1105.035971 430.964029V202.589928c0-25.784173-20.258993-46.043165-46.043165-46.043165H195.223022c-25.784173 0-46.043165 20.258993-46.043166 46.043165v226.532374h1.841727c88.402878 0 160.230216 71.827338 160.230216 160.230216s-71.827338 160.230216-160.230216 160.230216h-1.841727V976.115108c0 25.784173 20.258993 46.043165 46.043166 46.043165h863.769784c25.784173 0 46.043165-20.258993 46.043165-46.043165V749.582734c-88.402878 0-160.230216-71.827338-160.230216-160.230216s71.827338-158.388489 160.230216-158.388489zM782.733813 871.136691h-313.093525c-14.733813 0-27.625899-12.892086-27.6259-27.6259s12.892086-27.625899 27.6259-27.625899h313.093525c14.733813 0 27.625899 12.892086 27.625899 27.625899s-11.05036 27.625899-27.625899 27.6259z m0-187.856115c-14.733813 0-27.625899-12.892086-27.625899-27.6259 0-64.460432-57.093525-116.028777-128.920864-116.028777s-128.920863 51.568345-128.920863 116.028777c0 14.733813-12.892086 27.625899-27.625899 27.6259s-27.625899-12.892086-27.6259-27.6259c0-66.302158 40.517986-125.23741 101.294965-152.863309-20.258993-20.258993-31.309353-47.884892-31.309353-79.194245 0-62.618705 51.568345-116.028777 114.18705-116.028777 62.618705 0 114.18705 51.568345 114.187051 116.028777 0 31.309353-12.892086 58.935252-31.309353 79.194245 58.935252 27.625899 101.294964 86.561151 101.294964 152.863309 0 14.733813-11.05036 27.625899-27.625899 27.6259z" fill="#fad0a7" p-id="15002" data-spm-anchor-id="a313x.search_index.0.i23.a1063a81kaB7C6" class=""></path><path d="M626.18705 364.661871c-33.151079 0-58.935252 27.625899-58.935251 60.776978s27.625899 60.776978 58.935251 60.776978c33.151079 0 58.935252-27.625899 58.935252-60.776978s-25.784173-60.776978-58.935252-60.776978z" fill="#F6CA4B" p-id="15003"></path><path d="M968.748201 948.489209H69.985612c-38.676259 0-69.985612-31.309353-69.985612-69.985612V618.820144h25.784173c79.194245 0 143.654676-64.460432 143.654676-145.496403 0-79.194245-64.460432-145.496403-143.654676-145.496403H1.841727v-257.841726C0 31.309353 31.309353 0 69.985612 0h898.762589c38.676259 0 69.985612 31.309353 69.985612 69.985612v259.683453h-22.100719c-79.194245 0-143.654676 64.460432-143.654677 145.496403 0 79.194245 64.460432 145.496403 143.654677 145.496403h22.100719v259.683453c0 36.834532-31.309353 68.143885-69.985612 68.143885zM44.201439 663.021583v215.482014c0 14.733813 11.05036 25.784173 25.784173 25.784173h898.762589c14.733813 0 25.784173-11.05036 25.784173-25.784173V663.021583c-93.928058-11.05036-165.755396-90.244604-165.755396-187.856115 0-97.611511 71.827338-176.805755 165.755396-187.856115V69.985612c0-14.733813-11.05036-25.784173-25.784173-25.784173H69.985612c-14.733813 0-25.784173 11.05036-25.784173 25.784173v215.482014c93.928058 9.208633 167.597122 90.244604 167.597122 187.856115 0 99.453237-73.669065 178.647482-167.597122 189.697842z" fill="#e98f36" p-id="15004" data-spm-anchor-id="a313x.search_index.0.i27.a1063a81kaB7C6" class="selected"></path><path d="M681.438849 764.316547H357.294964c-12.892086 0-22.100719-9.208633-22.100719-22.10072s9.208633-22.100719 22.100719-22.100719H681.438849c12.892086 0 22.100719 9.208633 22.100719 22.100719s-9.208633 22.100719-22.100719 22.10072z" fill="#d81e06" p-id="15005" data-spm-anchor-id="a313x.search_index.0.i26.a1063a81kaB7C6" class=""></path><path d="M519.366906 416.230216c-62.618705 0-112.345324-51.568345-112.345323-114.187051s51.568345-114.18705 112.345323-114.18705c62.618705 0 112.345324 51.568345 112.345324 114.18705s-49.726619 114.18705-112.345324 114.187051z m0-182.330935c-38.676259 0-68.143885 31.309353-68.143884 69.985611s31.309353 69.985612 68.143884 69.985612c38.676259 0 68.143885-31.309353 68.143885-69.985612s-29.467626-69.985612-68.143885-69.985611z" fill="#d81e06" p-id="15006" data-spm-anchor-id="a313x.search_index.0.i25.a1063a81kaB7C6" class=""></path><path d="M681.438849 567.251799c-12.892086 0-22.100719-9.208633-22.10072-22.10072 0-69.985612-62.618705-128.920863-139.971223-128.920863-77.352518 0-139.971223 57.093525-139.971223 128.920863 0 12.892086-9.208633 22.100719-22.100719 22.10072s-22.100719-9.208633-22.100719-22.10072c0-95.769784 82.877698-173.122302 184.172661-173.122302s184.172662 77.352518 184.172662 173.122302c0 11.05036-9.208633 22.100719-22.100719 22.10072z" fill="#d81e06" p-id="15007" data-spm-anchor-id="a313x.search_index.0.i24.a1063a81kaB7C6" class=""></path></svg>