<?xml version="1.0" standalone="no"?><!DOCTYPE svg PUBLIC "-//W3C//DTD SVG 1.1//EN" "http://www.w3.org/Graphics/SVG/1.1/DTD/svg11.dtd"><svg t="1738918394012" class="icon" viewBox="0 0 1024 1024" version="1.1" xmlns="http://www.w3.org/2000/svg" p-id="4261" xmlns:xlink="http://www.w3.org/1999/xlink" width="200" height="200"><path d="M587.9 551.3H356.4c-11.6 0-23 3.3-32.9 9.5L197 685.5c-8.2 8.1-22.2 2.3-22.2-9.3V571.3c0-11-8.9-20-20-20H89.3c-26.9 0-48.6-21.8-48.6-48.6V163.2c0-26.9 21.8-48.6 48.6-48.6h498.6c26.9 0 48.6 21.8 48.6 48.6v339.5c0.1 26.8-21.7 48.6-48.6 48.6z" fill="#ea986c" p-id="4262" data-spm-anchor-id="a313x.search_index.0.i1.43363a81bkuzi4" class="selected"></path><path d="M439.8 734.9H670c11.6 0 22.9 3.3 32.7 9.4l125.9 124c8.2 8.1 22 2.3 22-9.2V754.8c0-11 8.9-19.9 19.9-19.9h65.2c26.7 0 48.3-21.6 48.3-48.3V349c0-26.7-21.6-48.3-48.3-48.3H439.8c-26.7 0-48.3 21.6-48.3 48.3v337.6c-0.1 26.7 21.6 48.3 48.3 48.3z" fill="#FFFFFF" p-id="4263"></path><path d="M837.5 909.5c-13 0-25.7-5-35.3-14.5L680 774.5c-3.1-1.4-6.5-2.2-10-2.2H439.8c-47.3 0-85.7-38.5-85.7-85.7V349c0-47.3 38.5-85.7 85.7-85.7h495.8c47.3 0 85.7 38.5 85.7 85.7v337.6c0 47.3-38.5 85.7-85.7 85.7h-47.7v86.8c0 20.3-12.1 38.6-30.9 46.4-6.3 2.7-12.9 4-19.5 4z m17.2-67.8zM439.8 338c-6 0-11 4.9-11 11v337.6c0 6 4.9 11 11 11H670c18.6 0 36.8 5.2 52.6 15.2l3.4 2.2 87.1 85.9V755c0-31.6 25.7-57.3 57.3-57.3h65.2c6 0 11-4.9 11-11V349c0-6-4.9-11-11-11H439.8z" fill="#f4ea2a" p-id="4264" data-spm-anchor-id="a313x.search_index.0.i0.43363a81bkuzi4" class=""></path></svg>