<?xml version="1.0" standalone="no"?><!DOCTYPE svg PUBLIC "-//W3C//DTD SVG 1.1//EN" "http://www.w3.org/Graphics/SVG/1.1/DTD/svg11.dtd"><svg t="1736470598812" class="icon" viewBox="0 0 1024 1024" version="1.1" xmlns="http://www.w3.org/2000/svg" p-id="17208" data-spm-anchor-id="a313x.search_index.0.i36.a1063a81kaB7C6" xmlns:xlink="http://www.w3.org/1999/xlink" width="200" height="200"><path d="M788.2752 471.04a20.48 20.48 0 0 0-20.48 22.528v288.768a52.4288 52.4288 0 0 1-51.2 53.248h-454.656c-28.672 0-61.44-24.576-61.44-53.248V325.4272a67.584 67.584 0 0 1 61.44-59.392h245.76a20.48 20.48 0 1 0 0-40.96h-245.76a102.4 102.4 0 0 0-104.448 102.4v454.656a98.0992 98.0992 0 0 0 104.448 96.256H716.8a88.6784 88.6784 0 0 0 94.208-96.256V491.52a22.3232 22.3232 0 0 0-22.7328-20.48z m65.536-219.136l-73.728-73.728a66.7648 66.7648 0 0 0-92.16 0l-61.44 71.68-323.584 309.248-20.48 186.368 10.24 8.192 180.224-24.576 309.248-323.584 71.68-57.344a72.0896 72.0896 0 0 0 0-96.256z m-520.192 450.56l6.144-86.016 79.872 79.872z m124.928-28.672l-98.304-98.304L649.0112 286.72l96.256 96.256-286.72 290.816z m364.544-360.448l-43.008 43.008L675.84 251.6992l43.008-43.008a22.1184 22.1184 0 0 1 14.336-6.144 18.6368 18.6368 0 0 1 14.336 6.144l73.728 73.728a20.48 20.48 0 0 1 1.8432 30.72z" fill="#e98f36" p-id="17209" data-spm-anchor-id="a313x.search_index.0.i37.a1063a81kaB7C6" class=""></path></svg>