<?xml version="1.0" standalone="no"?><!DOCTYPE svg PUBLIC "-//W3C//DTD SVG 1.1//EN" "http://www.w3.org/Graphics/SVG/1.1/DTD/svg11.dtd"><svg t="1738919697376" class="icon" viewBox="0 0 1024 1024" version="1.1" xmlns="http://www.w3.org/2000/svg" p-id="9196" data-spm-anchor-id="a313x.search_index.0.i11.43363a81bkuzi4" xmlns:xlink="http://www.w3.org/1999/xlink" width="200" height="200"><path d="M810.288 122a109.28 109.28 0 0 1 109.216 105.52l0.064 3.76v436.432a109.28 109.28 0 0 1-105.536 109.216l-3.744 0.064h-29.104a22 22 0 0 1-2.112-43.888l2.112-0.112h29.104a65.28 65.28 0 0 0 65.2-62.016l0.08-3.264V231.28a65.28 65.28 0 0 0-62.032-65.2l-3.248-0.08H315.664a65.28 65.28 0 0 0-65.2 62.032l-0.08 3.248v29.104a22 22 0 0 1-43.904 2.112l-0.096-2.112v-29.104a109.28 109.28 0 0 1 105.52-109.216l3.76-0.064h494.624z m-116.384 116.384a109.28 109.28 0 0 1 109.28 109.28v436.432a108.864 108.864 0 0 1-26.176 70.96 110.192 110.192 0 0 1-16.32 15.552l-2.816 2.096c-5.68 4.112-11.76 7.68-18.192 10.656l-3.248 1.44a108.448 108.448 0 0 1-35.04 8.32l-3.744 0.192-3.76 0.064H199.296c-1.264 0-2.512-0.016-3.76-0.064l-3.728-0.192a109.12 109.12 0 0 1-31.76-6.992l-3.296-1.344a109.312 109.312 0 0 1-66.752-100.688V347.664a109.28 109.28 0 0 1 109.28-109.28z m-101.824 334.944a254.336 254.336 0 0 0-235.776 159.104 22 22 0 0 1-38.304 4.528 181.76 181.76 0 0 0-147.808-76.336c-11.024 0-21.952 1.008-32.72 2.992l-3.472 0.704v119.776a65.12 65.12 0 0 0 22.112 48.96c5.44 4.8 11.664 8.704 18.464 11.488l2.912 1.104c0.96 0.352 1.952 0.672 2.944 0.96l3.008 0.832c5.072 1.264 10.384 1.936 15.84 1.936H693.92a66.112 66.112 0 0 0 9.632-0.704l3.136-0.544c1.04-0.208 2.064-0.432 3.072-0.688l3.008-0.832a64.736 64.736 0 0 0 24.32-13.536 65.6 65.6 0 0 0 18.624-27.888 65.44 65.44 0 0 0 3.488-21.088v-147.808l-2.656-2.32a252.784 252.784 0 0 0-157.92-60.544z m101.824-290.944H199.28a65.28 65.28 0 0 0-65.28 65.28v271.904a223.888 223.888 0 0 1 100.672 6.512c36.096 10.736 68.656 30.4 94.992 56.768l1.04 1.088 3.168-5.6a298.192 298.192 0 0 1 252.08-148.944l6.128-0.064c60.608 0 118.384 18.288 167.104 51.424V347.68a65.28 65.28 0 0 0-65.28-65.28z m-392.8 86.928a94.752 94.752 0 1 1 0 189.488 94.752 94.752 0 0 1 0-189.488z m0 44a50.752 50.752 0 1 0 0.032 101.488 50.752 50.752 0 0 0-0.016-101.488z" fill="#ea9518" p-id="9197" data-spm-anchor-id="a313x.search_index.0.i12.43363a81bkuzi4" class=""></path><path d="M592.08 573.328l6.528 0.096a252.784 252.784 0 0 1 157.92 60.544l2.656 2.32v147.808a65.28 65.28 0 0 1-65.28 65.28H199.28l-3.264-0.08a65.296 65.296 0 0 1-62.032-65.2V664.32l3.472-0.704a180.032 180.032 0 0 1 84.64 4.64 181.76 181.76 0 0 1 95.888 68.704c10.08 14.128 31.792 11.552 38.304-4.528a254.336 254.336 0 0 1 235.776-159.104zM301.12 413.312a50.752 50.752 0 1 1-0.016 101.488 50.752 50.752 0 0 1 0-101.488z" fill="#f4ea2a" p-id="9198" data-spm-anchor-id="a313x.search_index.0.i10.43363a81bkuzi4" class="selected"></path></svg>