<?xml version="1.0" standalone="no"?><!DOCTYPE svg PUBLIC "-//W3C//DTD SVG 1.1//EN" "http://www.w3.org/Graphics/SVG/1.1/DTD/svg11.dtd"><svg t="1739169473098" class="icon" viewBox="0 0 1082 1024" version="1.1" xmlns="http://www.w3.org/2000/svg" p-id="31970" xmlns:xlink="http://www.w3.org/1999/xlink" width="211.328125" height="200"><path d="M336.457143 336.457143m-336.457143 0a336.457143 336.457143 0 1 0 672.914286 0 336.457143 336.457143 0 1 0-672.914286 0Z" fill="#f4ea2a" p-id="31971" data-spm-anchor-id="a313x.search_index.0.i79.43363a81bkuzi4" class=""></path><path d="M1082.514286 475.428571l-58.514286 425.691429c-1.462857 67.291429-57.051429 122.88-124.342857 122.88h-629.028572c-68.754286 0-124.342857-57.051429-124.342857-125.805714V424.228571c0-11.702857 5.851429-23.405714 14.628572-29.257142 8.777143-7.314286 21.942857-8.777143 32.182857-5.851429 17.554286 4.388571 36.571429 7.314286 55.588571 8.777143 146.285714 0 169.691429-256 171.154286-260.388572 8.777143-78.994286 73.142857-137.508571 152.137143-137.508571C652.434286 0 731.428571 80.457143 731.428571 220.891429c2.925714 42.422857-2.925714 84.845714-16.091428 125.805714h242.834286c68.754286 0 124.342857 57.051429 124.342857 125.805714v2.925714z m-124.342857-55.588571H664.137143c-20.48 0-36.571429-16.091429-36.571429-36.571429 0-4.388571 1.462857-8.777143 2.925715-13.165714 21.942857-46.811429 30.72-98.011429 27.794285-149.211428C658.285714 109.714286 614.4 73.142857 571.977143 73.142857c-38.034286 0-71.68 26.331429-78.994286 64.365714C468.114286 301.348571 424.228571 469.577143 219.428571 469.577143v430.08c0 27.794286 23.405714 51.2 51.2 51.2h629.028572c27.794286 0 51.2-23.405714 51.2-51.2v-4.388572l58.514286-424.228571c-1.462857-29.257143-23.405714-51.2-51.2-51.2z" fill="#e0620d" p-id="31972" data-spm-anchor-id="a313x.search_index.0.i78.43363a81bkuzi4" class=""></path><path d="M36.571429 950.857143C16.091429 950.857143 0 934.765714 0 914.285714v-394.971428C0 498.834286 16.091429 482.742857 36.571429 482.742857S73.142857 498.834286 73.142857 519.314286v394.971428C73.142857 934.765714 57.051429 950.857143 36.571429 950.857143z" fill="#e0620d" p-id="31973" data-spm-anchor-id="a313x.search_index.0.i80.43363a81bkuzi4" class="selected"></path></svg>