<?xml version="1.0" standalone="no"?><!DOCTYPE svg PUBLIC "-//W3C//DTD SVG 1.1//EN" "http://www.w3.org/Graphics/SVG/1.1/DTD/svg11.dtd"><svg t="1739168197202" class="icon" viewBox="0 0 1024 1024" version="1.1" xmlns="http://www.w3.org/2000/svg" p-id="22186" id="mx_n_1739168197204" data-spm-anchor-id="a313x.search_index.0.i29.43363a81bkuzi4" xmlns:xlink="http://www.w3.org/1999/xlink" width="200" height="200"><path d="M513.081 874.632c-5.491 0-9.992-1.542-14.165-4.852-0.947-0.751-2.349-1.793-5.713-4.288-17.462-12.952-70.601-52.367-130.101-104.985-74.861-66.203-129.229-126.093-161.594-178.007l-0.263-0.418c-29.49-46.888-62.914-100.03-62.914-176.816 0-127.183 92.452-230.653 206.091-230.653 55.104 0 101.472 24.618 141.755 75.261a303.5 303.5 0 0 1 5.58 7.24c5.117 6.848 13.273 10.936 21.819 10.936 8.602 0 16.789-4.132 21.902-11.053a292.022 292.022 0 0 1 5.068-6.657c19.337-24.647 40.85-43.522 63.938-56.099 23.912-13.024 50.243-19.628 78.262-19.628 54.193 0 105.442 23.731 144.308 66.822 39.516 43.813 61.277 101.996 61.276 163.83 0 76.782-33.419 129.924-62.903 176.81l-0.215 0.342c-32.594 51.779-87.178 111.677-162.229 178.02-59.623 52.703-112.695 92.163-130.135 105.13-2.795 2.079-4.209 3.131-5.138 3.85-4.782 3.461-9.702 5.215-14.629 5.215z" fill="#FFFFFF" p-id="22187"></path><path d="M682.748 199.614c47.023 0 91.68 20.799 125.743 58.566 17.077 18.934 30.522 41.032 39.963 65.683 9.873 25.778 14.878 53.165 14.878 81.404 0 69.573-31.38 119.472-59.065 163.498l-0.205 0.326c-30.891 49.074-85.401 108.765-157.639 172.619-58.831 52.003-111.263 90.986-128.492 103.797-2.304 1.713-3.758 2.794-4.85 3.625-1.119-0.851-2.609-1.956-4.981-3.716-17.247-12.793-69.733-51.723-128.43-103.63-72.025-63.694-126.297-123.348-156.947-172.511l-0.052-0.084-0.053-0.084-0.209-0.332c-27.691-44.027-59.077-93.929-59.077-163.507 0-28.364 5.009-55.825 14.889-81.621 9.438-24.644 22.887-46.717 39.972-65.604 34.082-37.678 78.912-58.428 126.23-58.428 23.973 0 45.516 5.376 65.858 16.436 19.931 10.837 38.884 27.453 56.332 49.388a277.497 277.497 0 0 1 5.111 6.631c9.812 13.138 25.457 20.981 41.851 20.981 16.492 0 32.193-7.918 42.006-21.19a269.498 269.498 0 0 1 4.633-6.086c34.929-44.52 75.01-66.161 122.534-66.161m0-50c-66.55 0-120.081 32.031-161.871 85.297a316.842 316.842 0 0 0-5.505 7.23 2.221 2.221 0 0 1-1.797 0.909c-0.671 0-1.342-0.3-1.79-0.9a328.411 328.411 0 0 0-6.042-7.839c-42.084-52.907-95.021-84.698-161.32-84.698-127.374 0-231.091 114.479-231.091 255.653 0 84.192 37.255 143.227 66.962 190.459 86.09 138.092 294.023 286.455 303.085 293.64 9.06 7.188 19.13 10.267 29.702 10.267 10.575 0 20.642-3.592 29.703-10.267 9.063-7.185 216.991-156.061 303.593-293.64 29.702-47.232 66.955-106.267 66.955-190.459 0.004-140.66-103.707-255.652-230.584-255.652z" fill="#8a8a8a" p-id="22188" data-spm-anchor-id="a313x.search_index.0.i28.43363a81bkuzi4" class="selected"></path><path d="M598.06 284.932c-34.094 0-61.357 17.174-82.473 45.585l-0.021 0.029a2.633 2.633 0 0 1-4.225 0.012l-0.195-0.259c-21.303-28.28-48.281-45.366-82.293-45.366-63.704 0-115.574 58.48-115.574 130.596 0 43.007 18.63 73.162 33.49 97.29 43.055 70.54 147.049 146.327 151.581 150.001 4.532 3.67 9.568 5.245 14.857 5.245 5.287 0 10.325-1.837 14.857-5.245 4.532-3.673 108.525-79.724 151.834-150.001 14.857-24.128 33.49-54.284 33.49-97.29-0.001-71.854-51.87-130.597-115.328-130.597z" fill="#bfbfbf" p-id="22189" data-spm-anchor-id="a313x.search_index.0.i27.43363a81bkuzi4" class=""></path></svg>