<?xml version="1.0" standalone="no"?><!DOCTYPE svg PUBLIC "-//W3C//DTD SVG 1.1//EN" "http://www.w3.org/Graphics/SVG/1.1/DTD/svg11.dtd"><svg t="1739168947942" class="icon" viewBox="0 0 1024 1024" version="1.1" xmlns="http://www.w3.org/2000/svg" p-id="23544" xmlns:xlink="http://www.w3.org/1999/xlink" width="200" height="200"><path d="M699.886933 375.466667a425.642667 425.642667 0 0 0-409.6 542.037333l221.866667-117.077333 284.672 149.845333-54.272-317.098667 192.170667-187.050666A424.277333 424.277333 0 0 0 699.886933 375.466667z" fill="#bfbfbf" p-id="23545" data-spm-anchor-id="a313x.search_index.0.i36.43363a81bkuzi4" class=""></path><path d="M796.8256 1001.472a51.2 51.2 0 0 1-23.893333-5.802667l-261.12-136.533333-261.12 136.533333a51.2 51.2 0 0 1-74.410667-53.930666l49.834667-290.474667L15.5136 443.733333a51.2 51.2 0 0 1 28.330667-87.381333l291.84-40.96 130.389333-264.192a51.2 51.2 0 0 1 91.818667 0l130.389333 264.533333 291.84 42.325334a51.2 51.2 0 0 1 28.672 85.674666l-211.285333 204.8 49.834666 290.474667a51.2 51.2 0 0 1-50.517333 59.733333zM512.1536 750.933333a51.2 51.2 0 0 1 23.893333 5.802667l192.853334 102.4-36.864-217.429333a51.2 51.2 0 0 1 14.677333-45.397334L863.044267 443.733333 648.686933 413.013333a51.2 51.2 0 0 1-38.570666-27.989333L512.1536 189.44l-96.597333 195.584a51.2 51.2 0 0 1-39.936 27.989333l-214.357334 30.72 156.330667 152.576a51.2 51.2 0 0 1 14.677333 45.397334l-36.864 215.04 192.853334-102.4a51.2 51.2 0 0 1 23.893333-3.413334z" fill="#707070" p-id="23546" data-spm-anchor-id="a313x.search_index.0.i37.43363a81bkuzi4" class="selected"></path></svg>