<?xml version="1.0" standalone="no"?><!DOCTYPE svg PUBLIC "-//W3C//DTD SVG 1.1//EN" "http://www.w3.org/Graphics/SVG/1.1/DTD/svg11.dtd"><svg t="1735540572693" class="icon" viewBox="0 0 1024 1024" version="1.1" xmlns="http://www.w3.org/2000/svg" p-id="2285" xmlns:xlink="http://www.w3.org/1999/xlink" width="200" height="200"><path d="M581.58 218c-177.97-0.96-321.92 141.87-322.27 319.84-0.16 79.18 28.42 151.68 75.86 207.68 5.99 7.07 6.87 17.15 2.23 25.18l-36.75 63.65c-6.32 10.95 1.58 24.64 14.23 24.64H579.81c177.01 0 320.5-143.49 320.5-320.5s-142.54-319.54-318.73-320.5z" fill="#F4CBDB" p-id="2286"></path><path d="M397.5 512.5m-31.5 0a31.5 31.5 0 1 0 63 0 31.5 31.5 0 1 0-63 0Z" fill="#222222" p-id="2287"></path><path d="M513 512.5m-31.5 0a31.5 31.5 0 1 0 63 0 31.5 31.5 0 1 0-63 0Z" fill="#222222" p-id="2288"></path><path d="M628.5 512.5m-31.5 0a31.5 31.5 0 1 0 63 0 31.5 31.5 0 1 0-63 0Z" fill="#222222" p-id="2289"></path><path d="M512.81 850.12H247.88c-12.26 0-23.25-6.34-29.38-16.96-6.13-10.62-6.13-23.3 0-33.92l36.75-63.65c0.95-1.64 0.77-3.69-0.43-5.12-51.75-61.09-80.17-138.87-80.01-219.03 0.18-90.74 35.58-175.76 99.68-239.38 64.11-63.64 149.39-98.38 240.19-97.93 9.66 0.05 17.46 7.93 17.41 17.59-0.05 9.63-7.88 17.41-17.5 17.41h-0.1c-81.42-0.46-157.88 30.73-215.34 87.77-57.45 57.02-89.17 133.24-89.33 214.61-0.14 71.85 25.33 141.58 71.71 196.33 10.73 12.66 12.35 30.84 4.04 45.24l-35.82 62.04h263.12c80.91-0.02 156.99-31.53 214.2-88.75 57.23-57.23 88.75-133.32 88.75-214.25 0-53.95-14.35-106.91-41.5-153.15-26.36-44.91-64.08-82.52-109.06-108.76-8.35-4.87-11.17-15.59-6.3-23.93 4.87-8.35 15.59-11.17 23.93-6.3 50.16 29.26 92.21 71.2 121.61 121.28 30.3 51.61 46.31 110.7 46.31 170.87 0 45.62-8.94 89.89-26.57 131.57-17.02 40.25-41.39 76.4-72.43 107.43-31.04 31.04-67.18 55.4-107.43 72.43-41.68 17.63-85.95 26.57-131.57 26.57z" fill="#222222" p-id="2290"></path><path d="M598.5 204.5m-19.5 0a19.5 19.5 0 1 0 39 0 19.5 19.5 0 1 0-39 0Z" fill="#222222" p-id="2291"></path></svg>