<?xml version="1.0" standalone="no"?><!DOCTYPE svg PUBLIC "-//W3C//DTD SVG 1.1//EN" "http://www.w3.org/Graphics/SVG/1.1/DTD/svg11.dtd"><svg t="1736618651876" class="icon" viewBox="0 0 1024 1024" version="1.1" xmlns="http://www.w3.org/2000/svg" p-id="1479" xmlns:xlink="http://www.w3.org/1999/xlink" width="200" height="200"><path d="M910.208 28.448a85.344 85.344 0 0 1 85.344 85.344v796.416a85.344 85.344 0 0 1-85.344 85.344H113.792a85.344 85.344 0 0 1-85.344-85.344V113.792A85.344 85.344 0 0 1 113.792 28.448z m0 56.896H113.792a28.448 28.448 0 0 0-28.48 28.448v796.416c0 15.712 12.768 28.48 28.48 28.48h796.416c15.712 0 28.48-12.768 28.48-28.48V113.792a28.448 28.448 0 0 0-28.48-28.48z m-310.144 501.376a19.136 19.136 0 0 1 26.24-8.512c36 19.616 117.696 65.056 131.776 80.96 7.552 8.544 15.424 27.584 21.92 47.2 8.928 26.688-10.016 54.816-36.544 54.816H280.832c-27.072 0-45.728-28.128-36.8-54.816 6.496-19.328 14.336-38.656 21.92-47.168 14.08-15.936 95.776-61.376 131.744-80.992a19.136 19.136 0 0 1 26.24 8.512l41.12 79.872c5.696 11.36 21.92 8.224 23.552-4.576a16 16 0 0 0-1.344-7.936l-9.216-18.176a14.496 14.496 0 0 1 1.632-14.784l17.312-21.6 2.432-2.56a19.04 19.04 0 0 1 27.616 2.56l17.28 21.6a13.44 13.44 0 0 1 1.632 14.784l-9.184 18.176c-1.344 2.56-1.6 5.12-1.344 7.936 1.6 12.8 17.856 15.936 23.52 4.576z m-84.416-344.96c85.696 0 134.88 38.848 134.88 137.056 0 98.176-76.48 175.84-134.88 175.84-58.112 0-137.344-78.496-137.344-175.84 0-99.264 51.648-137.024 137.344-137.024z" fill="#d4237a" p-id="1480"></path></svg>