<?xml version="1.0" standalone="no"?><!DOCTYPE svg PUBLIC "-//W3C//DTD SVG 1.1//EN" "http://www.w3.org/Graphics/SVG/1.1/DTD/svg11.dtd"><svg t="1736454142575" class="icon" viewBox="0 0 1024 1024" version="1.1" xmlns="http://www.w3.org/2000/svg" p-id="1995" xmlns:xlink="http://www.w3.org/1999/xlink" width="200" height="200"><path d="M702.506667 413.376l-140.48-142.72a26.026667 26.026667 0 0 0-19.136-8.042667H231.573333c-7.253333 0-13.824 2.709333-19.136 8.042667l-140.544 142.72a27.093333 27.093333 0 0 0-7.893333 19.52v56.490667c0 6.762667 2.666667 13.461333 6.634667 18.154666l296.810666 338.581334a26.112 26.112 0 0 0 39.573334 0l296.810666-338.56c4.608-4.714667 6.634667-11.413333 6.634667-18.176v-56.490667a27.946667 27.946667 0 0 0-7.957333-19.52z" fill="#FCA73A" p-id="1996"></path><path d="M387.136 699.221333l-200.192-271.146666h100.629333l-9.301333 25.386666 108.8 145.813334 108.672-145.642667-9.109333-24.917333h100.629333z" fill="#FFFFFF" p-id="1997"></path><path d="M824.832 136.426667c3.946667 0 7.488 1.258667 10.538667 2.304l0.768 0.277333 40.853333 24.533333c12.992 7.552 18.581333 22.357333 13.333333 35.370667-0.853333 2.261333-2.816 8.682667-2.816 13.205333 0 19.541333 14.997333 35.541333 33.493334 35.541334h1.792c10.88 0 19.584 9.002667 22.293333 22.976l0.149333 0.896v0.32a10.218667 10.218667 0 0 1 0.256 1.706666c1.002667 6.08 3.242667 20.416 3.157334 32.128 0 12.672-2.282667 26.538667-3.264 32.469334l-0.277334 1.450666v0.277334l-0.149333 0.810666c-2.432 14.272-10.922667 23.146667-22.272 23.146667h-1.92c-18.410667 0-33.493333 15.914667-33.493333 35.541333v0.405334l-0.085334 0.405333c-0.597333 6.4 2.645333 13.568 2.709334 13.610667l0.085333 0.149333c5.354667 12.736 1.130667 28.565333-9.258667 35.456l-0.149333 0.170667-41.386667 24.277333c-4.565333 2.368-8.469333 3.904-13.717333 3.904-7.765333 0-15.36-3.349333-20.821333-9.088-10.858667-11.52-21.632-18.645333-28.074667-18.645333-8.64 0-21.738667 11.946667-26.602667 16.469333-0.533333 0.490667-1.002667 0.981333-1.450666 1.344-4.757333 5.653333-12.373333 9.088-20.821334 9.088-3.968 0-7.445333-1.28-10.474666-2.304l-0.768-0.298667-40.362667-23.808-0.298667-0.170666c-11.2-7.914667-16-23.616-10.944-35.861334 0.853333-2.261333 2.837333-8.682667 2.837334-13.226666 0-19.52-15.018667-35.52-33.514667-35.52h-0.917333c-10.858667 0-19.562667-9.002667-22.272-22.976l-0.149334-0.896v-0.32a10.218667 10.218667 0 0 1-0.277333-1.706667c-0.981333-6.08-3.242667-20.48-3.242667-32.213333 0-11.754667 2.304-26.133333 3.242667-32.213334 0.128-0.746667 0.277333-1.301333 0.277333-1.706666v-0.277334l0.149334-0.810666c2.432-14.272 10.922667-23.146667 22.272-23.146667h1.792c18.432 0 33.493333-15.914667 33.493333-35.541333 0-5.845333-2.56-12.565333-3.413333-14.528l-0.085334-0.170667c-5.354667-12.714667-1.130667-28.544 9.258667-35.456l0.277333-0.170667 42.837334-24.597333 0.682666-0.277333c3.050667-1.066667 6.464-2.304 10.538667-2.304 7.765333 0 15.36 3.349333 20.842667 9.088 6.421333 6.784 19.52 16.810667 27.242666 16.810666 7.786667 0 20.842667-10.069333 27.264-16.810666a30.293333 30.293333 0 0 1 20.842667-9.088z m-46.869333 114.496c-29.290667 0-53.013333 25.173333-53.013334 56.213333 0 31.061333 23.722667 56.213333 53.013334 56.213333 29.269333 0 52.992-25.152 52.992-56.213333 0-31.061333-23.722667-56.213333-52.992-56.213333z" fill="#4D69CE" p-id="1998"></path></svg>