<?xml version="1.0" standalone="no"?><!DOCTYPE svg PUBLIC "-//W3C//DTD SVG 1.1//EN" "http://www.w3.org/Graphics/SVG/1.1/DTD/svg11.dtd"><svg t="1736465971627" class="icon" viewBox="0 0 1024 1024" version="1.1" xmlns="http://www.w3.org/2000/svg" p-id="1373" xmlns:xlink="http://www.w3.org/1999/xlink" width="200" height="200"><path d="M360 466.698667a25.013333 25.013333 0 0 0 0 50.005333h79.498667v50.794667a25.013333 25.013333 0 0 0 50.005333 0v-50.794667h80.597333a25.013333 25.013333 0 0 0 0-50.005333H489.493333v-32.298667h80.597334a25.013333 25.013333 0 0 0 0-50.005333h-37.898667l36.597333-75.296a24.96 24.96 0 0 0-11.605333-33.397334 24.96 24.96 0 0 0-33.386667 11.594667l-47.210666 97.109333h-28.192l-47.2-97.109333a25.045333 25.045333 0 0 0-33.408-11.594667 25.045333 25.045333 0 0 0-11.594667 33.397334l36.597333 75.306666H360a25.013333 25.013333 0 0 0 0 49.994667h79.498667v32.298667H360z m553.098667 34.602666a24.992 24.992 0 0 0-25.002667-24.896h-59.701333a356.96 356.96 0 0 0-27.701334-162.005333 360.949333 360.949333 0 0 0-77.290666-114.698667 359.84 359.84 0 0 0-114.698667-77.301333 358.741333 358.741333 0 0 0-140.405333-28.394667c-48.704 0-95.893333 9.493333-140.394667 28.394667a360.949333 360.949333 0 0 0-114.698667 77.301333 359.84 359.84 0 0 0-77.301333 114.698667 358.741333 358.741333 0 0 0-28.405333 140.405333c0 104.693333 44.8 202.496 122.005333 270.496-45.098667 11.2-78.613333 52-78.613333 100.501334 0 59.701333 48.608 108.202667 108.213333 108.202666h259.093333c4.501333 0 8.906667-1.205333 12.8-3.509333l178.901334-106.293333H889.6a25.109333 25.109333 0 0 0 25.002667-25.194667l-1.493334-297.706667z m-755.594667-46.4c0-171.402667 139.392-310.805333 310.794667-310.805333 171.402667 0 310.805333 139.413333 310.805333 310.805333 0 7.2-0.298667 14.4-0.8 21.6H657.802667c-6.4 0-12.501333 2.4-17.098667 6.794667l-131.413333 123.701333a20.021333 20.021333 0 0 0-1.6 1.408l-104.288 98.4-0.501334 0.490667-16 15.104h-80.704a26.72 26.72 0 0 0-6.794666-6.602667c-88.906667-57.706667-141.898667-155.2-141.898667-260.906666z m545.386667 319.402667c-4.490667 0-8.896 1.194667-12.8 3.498667l-178.794667 106.293333H259.104a58.250667 58.250667 0 0 1-58.208-58.197333 53.557333 53.557333 0 0 1 53.504-53.504h131.498667a67.626667 67.626667 0 0 0 7.296 16 64.896 64.896 0 0 0 54.506666 30.101333c14.602667 0 28.906667-4.896 40.394667-14.186667l138.805333-111.008a24.96 24.96 0 1 0-31.2-38.997333L456.896 765.301333a14.570667 14.570667 0 0 1-19.296-21.802666l230.293333-216.896h195.413334l1.194666 247.893333h-161.6v-0.192z" fill="#e98f36" p-id="1374"></path></svg>