<?xml version="1.0" standalone="no"?><!DOCTYPE svg PUBLIC "-//W3C//DTD SVG 1.1//EN" "http://www.w3.org/Graphics/SVG/1.1/DTD/svg11.dtd"><svg t="1736465677291" class="icon" viewBox="0 0 1228 1024" version="1.1" xmlns="http://www.w3.org/2000/svg" p-id="4082" xmlns:xlink="http://www.w3.org/1999/xlink" width="239.84375" height="200"><path d="M1057.928533 0H171.076267C76.5952 0 0 78.2336 0 174.2848v634.4704C0 904.8064 76.8 983.04 171.076267 983.04h886.647466c94.481067 0 171.076267-78.2336 171.076267-174.2848V174.4896C1229.0048 78.2336 1152.2048 0 1057.928533 0z m102.8096 808.96c0 57.7536-46.08 104.721067-102.8096 104.721067H171.076267c-56.661333 0-102.8096-46.967467-102.8096-104.721067V174.4896c0-57.821867 46.08-104.721067 102.8096-104.721067h886.647466c56.661333 0 102.8096 46.8992 102.8096 104.721067v634.4704h0.2048z" fill="#DBB47F" p-id="4083"></path><path d="M491.042133 516.573867A174.353067 174.353067 0 0 0 559.104 378.197333C559.104 282.624 483.396267 204.8 390.485333 204.8 297.506133 204.8 221.866667 282.624 221.866667 378.197333c0 56.661333 26.965333 106.769067 67.9936 138.376534C192.034133 552.96 122.88 641.024 122.88 743.560533c0 19.114667 15.1552 34.679467 33.723733 34.679467a34.338133 34.338133 0 0 0 33.723734-34.679467c0-96.938667 89.770667-175.7184 200.0896-175.7184 110.3872 0 200.157867 78.779733 200.157866 175.7184 0 19.114667 15.1552 34.679467 33.723734 34.679467a34.338133 34.338133 0 0 0 33.723733-34.679467c0-102.536533-69.154133-190.600533-166.980267-226.986666zM390.485333 274.2272c55.842133 0 101.1712 46.557867 101.1712 103.970133 0 57.412267-45.329067 104.106667-101.1712 104.106667S289.245867 435.541333 289.245867 378.197333c0-57.344 45.329067-104.0384 101.1712-104.0384z m640.8192 122.4704h-269.789866a34.338133 34.338133 0 0 0-33.723734 34.679467c0 19.114667 15.1552 34.679467 33.723734 34.679466h269.789866a34.338133 34.338133 0 0 0 33.723734-34.679466 34.338133 34.338133 0 0 0-33.723734-34.679467z m0 208.145067h-269.789866a34.338133 34.338133 0 0 0-33.723734 34.679466c0 19.114667 15.1552 34.679467 33.723734 34.679467h269.789866a34.338133 34.338133 0 0 0 33.723734-34.679467 34.338133 34.338133 0 0 0-33.723734-34.679466z" fill="#DBB47F" p-id="4084"></path></svg>