<?xml version="1.0" standalone="no"?><!DOCTYPE svg PUBLIC "-//W3C//DTD SVG 1.1//EN" "http://www.w3.org/Graphics/SVG/1.1/DTD/svg11.dtd"><svg t="1738921856336" class="icon" viewBox="0 0 1024 1024" version="1.1" xmlns="http://www.w3.org/2000/svg" p-id="13714" xmlns:xlink="http://www.w3.org/1999/xlink" width="200" height="200"><path d="M392.7 716.8h238.9V768H392.7zM751.1 256H273.2c-28.3 0-51.2 22.9-51.2 51.2v324.3c0 28.3 22.9 51.2 51.2 51.2h477.9c28.3 0 51.2-22.9 51.2-51.2V307.2c0-28.3-23-51.2-51.2-51.2z m0 375.5H273.2V307.2h477.9v324.3z" p-id="13715" fill="#1afa29"></path><path d="M562.7 491.2l61.1 71.2c6.8 7.9 7.8 19.4 2.3 28.4-4.5 7.4-12.7 11.7-21.3 11.7h-80.4v-69c0-2.2-1.8-4-4-4h-16.3c-2.2 0-4 1.8-4 4v69h-80.4c-8.6 0-16.9-4.3-21.3-11.7-5.5-9.1-4.5-20.5 2.3-28.4l61.1-71.2c15.2 9.2 32.7 14.1 50.5 14.1 18.5 0 35.7-5.1 50.4-14.1z m-50.4-164.3c45.4 0 82.1 37.4 81.1 83-1 43-36.1 78.1-79.1 79.1-45.7 1.1-83-35.6-83-81.1-0.1-44.7 36.2-81 81-81z m0 0" p-id="13716" fill="#1afa29"></path></svg>