<?xml version="1.0" standalone="no"?><!DOCTYPE svg PUBLIC "-//W3C//DTD SVG 1.1//EN" "http://www.w3.org/Graphics/SVG/1.1/DTD/svg11.dtd"><svg t="1736470768554" class="icon" viewBox="0 0 1024 1024" version="1.1" xmlns="http://www.w3.org/2000/svg" p-id="19104" data-spm-anchor-id="a313x.search_index.0.i43.a1063a81kaB7C6" xmlns:xlink="http://www.w3.org/1999/xlink" width="200" height="200"><path d="M504.52212 980.577718c-246.15593 0-449.034079-202.950399-449.034079-449.034079s202.950399-449.034079 449.034079-449.034079 449.034079 202.950399 449.034078 449.034079-202.878149 449.034079-449.034078 449.034079z m0-863.532632c-228.815918 0-414.498554 185.682636-414.498554 414.498553 0 228.815918 185.682636 414.498554 414.498554 414.498554 228.815918 0 414.498554-185.682636 414.498553-414.498554 0.07225-228.815918-185.610386-414.498554-414.498553-414.498553z m0 0" fill="#e98f36" p-id="19105"></path><path d="M664.266987 768.812813H348.751005c-31.573273 0-52.598039-21.024765-52.598038-52.598038V541.008396c0-31.573273 21.024765-52.598039 52.598038-52.598038h315.515982c31.573273 0 52.598039 21.024765 52.598038 52.598038v175.278629c0 31.501023-21.097015 52.525788-52.598038 52.525788zM348.751005 523.451633c-10.548508 0-17.556763 7.008255-17.556762 17.556763v175.278629c0 10.548508 7.008255 17.556763 17.556762 17.556762h315.515982c10.548508 0 17.556763-7.008255 17.556762-17.556762V541.008396c0-10.548508-7.008255-17.556763-17.556762-17.556763H348.751005z m0 0" fill="#1296db" p-id="19106" data-spm-anchor-id="a313x.search_index.0.i39.a1063a81kaB7C6" class=""></path><path d="M646.710224 523.451633H366.307768V400.771044c0-70.082551 52.598039-122.68059 122.68059-122.68059h35.041276c70.082551 0 122.68059 52.598039 122.68059 122.68059v122.680589zM401.349044 488.410358h210.319904V400.771044c0-49.057786-38.581528-87.639314-87.639314-87.639315h-35.041276c-49.057786 0-87.639314 38.581528-87.639314 87.639315V488.410358z m70.082551 175.278628H366.307768V558.492909h105.196077v105.196077z m-70.082551-35.041276H436.39032v-35.041275h-35.041276v35.041275z m0 0" fill="#1296db" p-id="19107" data-spm-anchor-id="a313x.search_index.0.i40.a1063a81kaB7C6" class=""></path><path d="M646.710224 681.173499h-35.041276V628.57546H436.39032v-35.041275h210.319904v87.639314z m0 0" fill="#d81e06" p-id="19108" data-spm-anchor-id="a313x.search_index.0.i41.a1063a81kaB7C6" class="selected"></path><path d="M541.586397 593.534185h35.041275v70.082551h-35.041275z" fill="#d81e06" p-id="19109" data-spm-anchor-id="a313x.search_index.0.i42.a1063a81kaB7C6" class="selected"></path></svg>