<?xml version="1.0" standalone="no"?><!DOCTYPE svg PUBLIC "-//W3C//DTD SVG 1.1//EN" "http://www.w3.org/Graphics/SVG/1.1/DTD/svg11.dtd"><svg t="1736454410734" class="icon" viewBox="0 0 1024 1024" version="1.1" xmlns="http://www.w3.org/2000/svg" p-id="1428" xmlns:xlink="http://www.w3.org/1999/xlink" width="200" height="200"><path d="M748.373333 938.794667h39.253334V866.56h84.053333v-22.613333h-84.053333v-30.72h84.053333v-23.04h-72.96l102.826667-159.274667h-45.226667l-50.346667 86.229333c-14.08 26.496-22.186667 41.002667-36.693333 65.365334h-2.133333c-13.653333-24.32-21.76-38.4-36.693334-65.365334l-50.773333-86.229333h-45.653333l103.253333 159.274667h-73.386667v23.04h84.48v30.72h-84.48v22.613333h84.48v72.234667z" fill="#000000" p-id="1429"></path><path d="M554.666667 1002.666667H213.333333q-26.496 0-45.226666-18.773334-18.773333-18.730667-18.773334-45.226666V213.333333q0-26.496 18.773334-45.226666Q186.794667 149.333333 213.333333 149.333333h85.333334a21.333333 21.333333 0 0 1 0 42.666667H213.333333q-8.832 0-15.104 6.229333Q192 204.501333 192 213.333333v725.333334q0 8.832 6.229333 15.104 6.272 6.229333 15.104 6.229333h341.333334a21.333333 21.333333 0 0 1 0 42.666667z m170.666666-853.333334h85.333334q26.496 0 45.226666 18.773334 18.773333 18.730667 18.773334 45.226666v234.666667a21.333333 21.333333 0 0 1-42.666667 0V213.333333q0-8.832-6.229333-15.104Q819.498667 192 810.666667 192h-85.333334a21.333333 21.333333 0 0 1 0-42.666667z" fill="#000000" p-id="1430"></path><path d="M277.333333 128v42.666667q0 26.496 18.773334 45.226666 18.730667 18.773333 45.226666 18.773334h341.333334q26.496 0 45.226666-18.773334 18.773333-18.730667 18.773334-45.226666V128q0-26.496-18.773334-45.226667-18.730667-18.773333-45.226666-18.773333H341.333333q-26.496 0-45.226666 18.773333Q277.333333 101.461333 277.333333 128z m48.896 57.770667Q320 179.498667 320 170.666667V128q0-8.832 6.229333-15.104Q332.501333 106.666667 341.333333 106.666667h341.333334q8.832 0 15.104 6.229333 6.229333 6.272 6.229333 15.104v42.666667q0 8.832-6.229333 15.104-6.272 6.229333-15.104 6.229333H341.333333q-8.832 0-15.104-6.229333zM298.666667 324.266667h426.666666a17.066667 17.066667 0 0 1 0 34.133333H298.666667a17.066667 17.066667 0 1 1 0-34.133333zM298.666667 452.266667h426.666666a17.066667 17.066667 0 0 1 0 34.133333H298.666667a17.066667 17.066667 0 1 1 0-34.133333zM298.666667 580.266667h213.333333a17.066667 17.066667 0 0 1 0 34.133333H298.666667a17.066667 17.066667 0 1 1 0-34.133333zM298.666667 708.266667h170.666666a17.066667 17.066667 0 0 1 0 34.133333H298.666667a17.066667 17.066667 0 1 1 0-34.133333zM298.666667 836.266667h128a17.066667 17.066667 0 0 1 0 34.133333H298.666667a17.066667 17.066667 0 1 1 0-34.133333zM1024 768a256 256 0 1 1-512 0 256 256 0 0 1 512 0z m-42.666667 0q0-88.362667-62.464-150.869333Q856.32 554.666667 768 554.666667q-88.362667 0-150.869333 62.464Q554.666667 679.68 554.666667 768q0 88.362667 62.464 150.869333Q679.68 981.333333 768 981.333333q88.362667 0 150.869333-62.464Q981.333333 856.32 981.333333 768z" fill="#1296db" p-id="1431"></path></svg>