<?xml version="1.0" standalone="no"?><!DOCTYPE svg PUBLIC "-//W3C//DTD SVG 1.1//EN" "http://www.w3.org/Graphics/SVG/1.1/DTD/svg11.dtd"><svg t="1736454663765" class="icon" viewBox="0 0 1024 1024" version="1.1" xmlns="http://www.w3.org/2000/svg" p-id="1463" xmlns:xlink="http://www.w3.org/1999/xlink" width="200" height="200"><path d="M502.3232 511.488m-451.1744 0a451.1744 451.1744 0 1 0 902.3488 0 451.1744 451.1744 0 1 0-902.3488 0Z" fill="#488ef1" p-id="1464"></path><path d="M643.7376 560.4352h-92.7744V491.9296h92.7744c21.1968 0 38.4-17.2032 38.4-38.4s-17.2032-38.4-38.4-38.4h-58.2656l63.1808-71.0656c14.08-15.872 12.6464-40.1408-3.1744-54.2208-15.872-14.08-40.1408-12.6464-54.2208 3.1744L509.7472 384.7168l-84.1216-89.6c-14.4896-15.4624-38.8096-16.2304-54.272-1.6896-15.4624 14.4896-16.2304 38.8096-1.6896 54.272l63.2832 67.4304H381.3888c-21.1968 0-38.4 17.2032-38.4 38.4s17.2032 38.4 38.4 38.4h92.7744v68.5056H381.3888c-21.1968 0-38.4 17.2032-38.4 38.4s17.2032 38.4 38.4 38.4h92.7744v77.4144c0 21.1968 17.2032 38.4 38.4 38.4s38.4-17.2032 38.4-38.4v-77.4144h92.7744c21.1968 0 38.4-17.2032 38.4-38.4s-17.152-38.4-38.4-38.4z" fill="#FFCD43" p-id="1465"></path></svg>